<svg xmlns="http://www.w3.org/2000/svg" viewBox="0 0 60 25"><path fill="#635BFF" d="M5 10.1c0-.8.6-1.1 1.7-1.1 1.5 0 3.4.5 4.9 1.3V5.7C10 5.1 8.4 4.8 6.7 4.8 2.9 4.8.3 6.8.3 10.2c0 5.3 7.3 4.4 7.3 6.7 0 .9-.8 1.2-1.9 1.2-1.6 0-3.7-.7-5.3-1.6v4.7c1.8.8 3.6 1.1 5.3 1.1 3.9 0 6.6-1.9 6.6-5.4 0-5.7-7.3-4.6-7.3-6.8zM17.9 1.5l-4.3.9v14.1c0 2.6 2 4.5 4.6 4.5 1.4 0 2.5-.3 3-.6v-3.6c-.6.2-3.3 1-3.3-1.5V8.9h3.3V5.1h-3.3zM27.3 6.4l-.3-1.3h-3.8v16.2h4.4V10.4c1-1.4 2.8-1.1 3.4-1V5.1c-.6-.2-2.6-.7-3.7 1.3zM35.9 5.1h-4.4v16.2h4.4zM31.5 3.9l4.4-.9V.3l-4.4.9zM45.6 4.8c-1.7 0-2.8.8-3.4 1.4l-.2-1.1h-3.9v21.3l4.4-.9v-5.2c.6.5 1.6 1.1 3.1 1.1 3.1 0 6-2.5 6-8.1 0-5.1-2.9-8.5-6-8.5zm-1.1 13c-1 0-1.7-.4-2.1-.9V9.9c.5-.5 1.1-.9 2.1-.9 1.6 0 2.7 1.8 2.7 4.4 0 2.7-1.1 4.4-2.7 4.4zM60 13.4c0-4.7-2.3-8.4-6.7-8.4s-7.1 3.7-7.1 8.4c0 5.5 3.1 8.3 7.6 8.3 2.2 0 3.9-.5 5.1-1.2v-3.5c-1.2.6-2.6 1-4.4 1-1.7 0-3.3-.6-3.5-2.7h8.8c0-.2.2-1 .2-1.9zm-8.9-1.7c0-2 1.2-2.8 2.3-2.8 1 0 2.2.8 2.2 2.8z"></path></svg>